UNKNOWN
version=1
nRows=126
nColumns=4
inDegrees=no
endheader
time	time	hip_flexion_r_moment	hip_flexion_l_moment
      0.00000000	      0.95000000	     -7.17025092	     11.32173086
      1.00000000	      0.96000000	     -5.77330693	      2.42680273
      2.00000000	      0.97000000	     -4.41643202	     -6.13828038
      3.00000000	      0.98000000	     -3.10684148	    -13.62690228
      4.00000000	      0.99000000	     -1.83595134	    -19.48270723
      5.00000000	      1.00000000	     -0.58057281	    -23.40113522
      6.00000000	      1.01000000	      0.68800910	    -25.29473997
      7.00000000	      1.02000000	      1.99606241	    -25.32399468
      8.00000000	      1.03000000	      3.35607884	    -23.78841110
      9.00000000	      1.04000000	      4.76080505	    -21.06865909
     10.00000000	      1.05000000	      6.18061729	    -17.58661909
     11.00000000	      1.06000000	      7.56427572	    -13.77510202
     12.00000000	      1.07000000	      8.84259885	    -10.04402016
     13.00000000	      1.08000000	      9.93555704	     -6.73849136
     14.00000000	      1.09000000	     10.76326344	     -4.09737619
     15.00000000	      1.10000000	     11.32898112	     -2.23691446
     16.00000000	      1.11000000	     11.80498832	     -1.11981796
     17.00000000	      1.12000000	     12.05245814	     -0.61223404
     18.00000000	      1.13000000	     12.08325629	     -0.52770616
     19.00000000	      1.14000000	     11.91780610	     -0.67241962
     20.00000000	      1.15000000	     11.57570904	     -0.87747774
     21.00000000	      1.16000000	     11.07813908	     -1.01493129
     22.00000000	      1.17000000	     10.44218536	     -1.00251130
     23.00000000	      1.18000000	      9.67690359	     -0.80229426
     24.00000000	      1.19000000	      8.67214866	     -0.41619210
     25.00000000	      1.20000000	      7.62503209	      0.12000806
     26.00000000	      1.21000000	      6.57324295	      0.74439429
     27.00000000	      1.22000000	      5.55302306	      1.38014426
     28.00000000	      1.23000000	      4.59987953	      1.94957076
     29.00000000	      1.24000000	      3.74768272	      2.38759801
     30.00000000	      1.25000000	      3.02488967	      2.64798976
     31.00000000	      1.26000000	      2.44858249	      2.71652322
     32.00000000	      1.27000000	      2.01871917	      2.59604015
     33.00000000	      1.28000000	      1.71545193	      2.30374737
     34.00000000	      1.29000000	      1.50161479	      1.86581388
     35.00000000	      1.30000000	      1.33064483	      1.31193107
     36.00000000	      1.31000000	      1.15781006	      0.67318506
     37.00000000	      1.32000000	      0.95112548	     -0.01706432
     38.00000000	      1.33000000	      0.69853891	     -0.72185741
     39.00000000	      1.34000000	      0.40995253	     -1.40165894
     40.00000000	      1.35000000	      0.11395914	     -2.01903830
     41.00000000	      1.36000000	     -0.14955266	     -2.54501061
     42.00000000	      1.37000000	     -0.33962339	     -2.96350535
     43.00000000	      1.38000000	     -0.42542661	     -3.27222288
     44.00000000	      1.39000000	     -0.39647995	     -3.48016418
     45.00000000	      1.40000000	     -0.26994500	     -3.60290684
     46.00000000	      1.41000000	     -0.09356984	     -3.65710842
     47.00000000	      1.42000000	      0.05657693	     -3.65602311
     48.00000000	      1.43000000	      0.08433349	     -3.60773401
     49.00000000	      1.44000000	     -0.11799498	     -3.51681921
     50.00000000	      1.45000000	     -0.88995791	     -3.38816782
     51.00000000	      1.46000000	     -2.04799990	     -3.23034610
     52.00000000	      1.47000000	     -3.52718991	     -3.05671127
     53.00000000	      1.48000000	     -5.19453154	     -2.88397987
     54.00000000	      1.49000000	     -6.86064828	     -2.72870184
     55.00000000	      1.50000000	     -8.33988057	     -2.60247104
     56.00000000	      1.51000000	     -9.21443403	     -2.50703714
     57.00000000	      1.52000000	     -9.75045868	     -2.43050436
     58.00000000	      1.53000000	    -10.23925650	     -2.34549022
     59.00000000	      1.54000000	    -10.61579474	     -2.20974980
     60.00000000	      1.55000000	    -10.80349878	     -1.96959890
     61.00000000	      1.56000000	    -10.72546114	     -1.56624847
     62.00000000	      1.57000000	    -10.32110985	     -0.94570495
     63.00000000	      1.58000000	     -9.56558920	     -0.06609146
     64.00000000	      1.59000000	     -8.48452191	      1.09253106
     65.00000000	      1.60000000	     -7.15648074	      2.52132745
     66.00000000	      1.61000000	     -5.70057852	      4.17833218
     67.00000000	      1.62000000	     -4.25319921	      5.98677927
     68.00000000	      1.63000000	     -2.94175147	      7.83821273
     69.00000000	      1.64000000	     -1.86329189	      9.60200215
     70.00000000	      1.65000000	     -1.07271941	     11.14136111
     71.00000000	      1.66000000	     -0.58106017	     12.33420339
     72.00000000	      1.67000000	     -0.35998452	     13.09527107
     73.00000000	      1.68000000	     -0.33009121	     13.43343107
     74.00000000	      1.69000000	     -0.48202784	     13.51873466
     75.00000000	      1.70000000	     -0.72838987	     13.31685947
     76.00000000	      1.71000000	     -0.98249059	     12.91082728
     77.00000000	      1.72000000	     -1.17180771	     12.37869072
     78.00000000	      1.73000000	     -1.24732547	     11.77825969
     79.00000000	      1.74000000	     -1.18769831	     11.13870210
     80.00000000	      1.75000000	     -0.99822497	     10.46651280
     81.00000000	      1.76000000	     -0.70524821	      9.74992025
     82.00000000	      1.77000000	     -0.34694573	      8.97290800
     83.00000000	      1.78000000	      0.03687632	      8.12697624
     84.00000000	      1.79000000	      0.42364085	      7.20311274
     85.00000000	      1.80000000	      0.80641843	      6.24681350
     86.00000000	      1.81000000	      1.15436788	      5.29509362
     87.00000000	      1.82000000	      1.46022143	      4.38027175
     88.00000000	      1.83000000	      1.72148445	      3.53365478
     89.00000000	      1.84000000	      1.93444690	      2.78166941
     90.00000000	      1.85000000	      2.08981719	      2.14340852
     91.00000000	      1.86000000	      2.17201378	      1.62996719
     92.00000000	      1.87000000	      2.16172399	      1.24591928
     93.00000000	      1.88000000	      2.04035681	      0.99217606
     94.00000000	      1.89000000	      1.79536387	      0.86891772
     95.00000000	      1.90000000	      1.42299808	      0.87728553
     96.00000000	      1.91000000	      0.93872899	      1.01874200
     97.00000000	      1.92000000	      0.37276694	      1.29201903
     98.00000000	      1.93000000	     -0.23824387	      1.67797507
     99.00000000	      1.94000000	     -0.85218618	      2.12199048
    100.00000000	      1.95000000	     -1.42910144	      2.59951358
    101.00000000	      1.96000000	     -1.93802361	      3.05520654
    102.00000000	      1.97000000	     -2.36010129	      3.41899847
    103.00000000	      1.98000000	     -2.68640903	      3.60352835
    104.00000000	      1.99000000	     -2.91324713	      3.50291316
    105.00000000	      2.00000000	     -3.03997831	      2.99645961
    106.00000000	      2.01000000	     -3.07020494	      1.95457702
    107.00000000	      2.02000000	     -3.01228068	      0.36936189
    108.00000000	      2.03000000	     -2.87650946	     -1.68325410
    109.00000000	      2.04000000	     -2.67099043	     -4.59421553
    110.00000000	      2.05000000	     -2.39927853	     -8.21786280
    111.00000000	      2.06000000	     -2.06089328	    -12.26109625
    112.00000000	      2.07000000	     -1.65452969	    -16.33954951
    113.00000000	      2.08000000	     -1.18383425	    -20.08308063
    114.00000000	      2.09000000	     -0.66499565	    -23.09053320
    115.00000000	      2.10000000	     -0.13460260	    -25.13342954
    116.00000000	      2.11000000	      0.34402283	    -26.07909642
    117.00000000	      2.12000000	      0.67688318	    -25.85964702
    118.00000000	      2.13000000	      0.73058166	    -24.46047549
    119.00000000	      2.14000000	      0.37545539	    -21.91742320
    120.00000000	      2.15000000	     -0.51675796	    -18.31631282
    121.00000000	      2.16000000	     -2.03801600	    -13.78699747
    122.00000000	      2.17000000	     -4.21515053	     -8.49009430
    123.00000000	      2.18000000	     -6.98565392	     -2.60188850
    124.00000000	      2.19000000	    -10.18571868	      3.69445441
    125.00000000	      2.20000000	    -13.56180622	     10.20706249
